<svg width="36" height="36" viewBox="0 0 36 36" fill="none" xmlns="http://www.w3.org/2000/svg">
<path d="M7.75001 4C8.75001 3 8.00001 0 6.31201 0C4.62401 0 4.75001 2 5.75001 2C6.75001 2 6.75001 4 6.75001 5C6.75001 6 7.75001 4 7.75001 4ZM3.56701 5.72C4.56701 4.72 3.81701 1.72 2.12901 1.72C0.441007 1.72 0.567007 3.72 1.56701 3.72C2.56701 3.72 2.56701 5.72 2.56701 6.72C2.56701 7.72 3.56701 5.72 3.56701 5.72Z" fill="#AA8DD8"/>
<path d="M29.942 32.856C30.131 33.664 31.169 35.136 31.974 34.947C32.78 34.757 33.051 32.976 32.862 32.17C32.673 31.362 31.864 30.863 31.058 31.053C30.253 31.243 29.752 32.05 29.942 32.856ZM24.508 33.505C24.511 34.335 25.189 36.003 26.017 36C26.845 35.996 27.511 34.323 27.508 33.494C27.505 32.665 26.831 31.997 26.003 31.999C25.175 32.003 24.505 32.676 24.508 33.505ZM19.237 31.059C18.911 31.823 18.872 33.622 19.633 33.949C20.396 34.273 21.67 33.002 21.996 32.239C22.321 31.477 21.968 30.596 21.207 30.269C20.445 29.944 19.564 30.296 19.237 31.059ZM14.206 20.019C13.394 20.191 11.898 21.192 12.067 22.002C12.24 22.812 14.012 23.126 14.824 22.955C15.635 22.784 16.153 21.988 15.984 21.178C15.812 20.368 15.019 19.848 14.206 20.019ZM12.169 15.019C11.357 15.191 9.86104 16.192 10.03 17.002C10.203 17.812 11.975 18.126 12.787 17.955C13.598 17.784 14.116 16.988 13.947 16.178C13.775 15.368 12.981 14.848 12.169 15.019Z" fill="#744EAA"/>
<path d="M27.579 34C30.41 34 32.505 33.123 32.845 32.973C35.116 31.963 36.138 29.304 35.129 27.034C34.13 24.784 31.513 23.759 29.257 24.72C29.124 24.77 27.464 25.369 25.914 24.648C24.063 23.787 22.919 21.339 22.286 19.439C22.142 19.009 21.901 18.165 21.6 17.123C19.734 10.652 18.768 8.83801 17.617 7.30301C13.906 2.35201 8.02499 2.00701 5.13399 2.58701C2.69699 3.07401 1.11599 5.44501 1.60399 7.88201C2.09199 10.32 4.46399 11.902 6.89999 11.412C7.06199 11.386 9.10399 11.106 10.324 12.581C10.967 13.868 12.404 17.709 12.954 19.615C13.3 20.814 13.583 21.786 13.748 22.282C15.521 27.599 18.414 31.175 22.351 32.911C24.203 33.729 26.005 34 27.579 34Z" fill="#9266CC"/>
<path d="M7.01703 6C7.56931 6 8.01703 5.55228 8.01703 5C8.01703 4.44772 7.56931 4 7.01703 4C6.46474 4 6.01703 4.44772 6.01703 5C6.01703 5.55228 6.46474 6 7.01703 6Z" fill="#202024"/>
<path d="M31.258 32.964C31.169 32.964 31.078 32.952 30.989 32.928C30.457 32.78 30.145 32.229 30.293 31.697C31.05 28.975 29.523 27.155 29.508 27.137C29.149 26.718 29.196 26.086 29.615 25.727C30.033 25.368 30.666 25.415 31.025 25.834C31.117 25.941 33.259 28.494 32.22 32.231C32.098 32.674 31.695 32.964 31.258 32.964ZM24.059 32.401C23.814 32.401 23.569 32.312 23.375 32.131C22.972 31.753 22.951 31.12 23.328 30.717C24.813 29.13 24.781 26.524 24.78 26.497C24.764 25.945 25.199 25.485 25.752 25.469C26.294 25.464 26.765 25.888 26.78 26.441C26.784 26.58 26.853 29.878 24.789 32.085C24.592 32.295 24.325 32.401 24.059 32.401ZM15.517 23.705C15.037 23.705 14.613 23.358 14.532 22.868C14.442 22.324 14.81 21.808 15.355 21.719C18.429 21.209 20.129 19.342 20.146 19.323C20.511 18.913 21.144 18.874 21.555 19.239C21.967 19.604 22.008 20.232 21.646 20.645C21.559 20.744 19.49 23.06 15.682 23.691C15.626 23.701 15.571 23.705 15.517 23.705ZM18.438 28.562C18.013 28.562 17.619 28.29 17.484 27.864C17.318 27.338 17.61 26.775 18.136 26.609C20.829 25.756 22.016 23.779 22.028 23.759C22.308 23.282 22.92 23.122 23.396 23.402C23.873 23.681 24.032 24.295 23.753 24.77C23.69 24.878 22.158 27.433 18.74 28.514C18.639 28.547 18.537 28.562 18.438 28.562ZM13.819 17.892C13.323 17.892 12.892 17.523 12.828 17.017C12.759 16.469 13.147 15.969 13.695 15.899C16.384 15.559 18.352 13.928 18.371 13.911C18.793 13.557 19.424 13.608 19.779 14.03C20.135 14.451 20.084 15.08 19.664 15.437C19.567 15.52 17.244 17.466 13.946 17.883C13.903 17.889 13.861 17.892 13.819 17.892ZM11.998 13.125C11.573 13.125 11.179 12.852 11.044 12.424C10.879 11.897 11.171 11.336 11.698 11.17C14.828 10.187 15.951 8.478 15.997 8.406C16.292 7.944 16.908 7.801 17.372 8.094C17.837 8.386 17.983 8.993 17.696 9.46C17.636 9.557 16.19 11.856 12.297 13.079C12.198 13.11 12.097 13.125 11.998 13.125Z" fill="#744EAA"/>
</svg>
